/* XPM */
static char *result[] = {
/* columns rows colors chars-per-pixel */
"32 32 12 1 ",
"  c #713970",
". c #566560",
"X c #8A4A70",
"o c #A35B70",
"O c #BD757E",
"+ c #67835C",
"@ c #78A158",
"# c #8DB15D",
"$ c #A4C263",
"% c #C0D470",
"& c #D99A9A",
"* c #F3F4E7",
/* pixels */
"%%%%%%%%%%%%%%%%%%%%%%%%%%%%%%%%",
"%%%%%%%%%%%%%%%%%%%%%%%%%%%%%%%%",
"%%%%%%%%%%%%%%%%%%%%%%%%%%%%%%%%",
"%%%%%%%%%%%%%%%%%%%%%%%%%%%%%%%%",
"%%%%%%%%%%%%%%%%%%%%%%%%%%%%%%%%",
"%%%%%%%%%%%%%%%%%%%%%%%%%%%%%%%%",
"%%%%%%%%%%%%%%%%%%%%%%%%%%%%%%%%",
"%%%%%%%%%%%%%%%%%%%%%%%%%%%%%%%%",
"%%%%%%%%%%%%%%%%%%%%%%%%%%%%%%%%",
"%%%%%%%%%%%%%%%%***%%%%%%%%%%%%%",
"%%%%%%%%%%%%%%%*@@+*%%%%%%%%%%%%",
"%%%%%%%%%%%%%%*@$$#+*%%%%%%%%%%%",
"%%%%%%%%%%%%%*@$##..*%%%%%%%%%%%",
"%%%%%%%%%%%%*X+##.X*%%%%%%%%%%%%",
"%%%%%%%%%%%*o&&...oX*%%%%%%%%%%%",
"%%%%%%%%%%*o&&&OOOoo *%%%%%%%%%%",
"%%%%%%%%%%*o&&OOOOoo *%%%%%%%%%%",
"%%%%%%%%%%*X&OOOOOoo *%%%%%%%%%%",
"%%%%%%%%%%*XOOOOOooo *%%%%%%%%%%",
"%%%%%%%%%%%*XOOOooo *%%%%%%%%%%%",
"%%%%%%%%%%%%*      *%%%%%%%%%%%%",
"%%%%%%%%%%%%%******%%%%%%%%%%%%%",
"%%%%%%%%%%%%%%%%%%%%%%%%%%%%%%%%",
"%%%%%%%%%%%%%%%%%%%%%%%%%%%%%%%%",
"%%%%%%%%%%%%%%%%%%%%%%%%%%%%%%%%",
"%%%%%%%%%%%%%%%%%%%%%%%%%%%%%%%%",
"%%%%%%%%%%%%%%%%%%%%%%%%%%%%%%%%",
"%%%%%%%%%%%%%%%%%%%%%%%%%%%%%%%%",
"%%%%%%%%%%%%%%%%%%%%%%%%%%%%%%%%",
"%%%%%%%%%%%%%%%%%%%%%%%%%%%%%%%%",
"%%%%%%%%%%%%%%%%%%%%%%%%%%%%%%%%",
"%%%%%%%%%%%%%%%%%%%%%%%%%%%%%%%%"
};
