/* XPM */
static char *result[] = {
/* columns rows colors chars-per-pixel */
"32 32 7 1 ",
"  c #754C60",
". c #90625D",
"X c #AA7959",
"o c #C49A6C",
"O c #C0D470",
"+ c #DCB98A",
"@ c #E8CFA6",
/* pixels */
"OOOOOOOOOOOOOOOOOOOOOOOOOOOOOOOO",
"OOOOOOOOOOOOOOOOOOOOOOOOOOOOOOOO",
"OOOOOOOO++++++++++++++++OOOOOOOO",
"OOOOO+++@@@@@@@@@@@@@@@@+++OOOOO",
"OOOO+@@@@@@@@@@@@@@@@@@@@@@+OOOO",
"OOO+@@@@@@@@@@@@@@@@@@@@@@@@+OOO",
"OOO+@@@@@@@@@@@@@@@@@@@@@@@@+OOO",
"OOO+@@@@@@@@@@@@@@@@@@@@@@@@+OOO",
"OO+@@@@@  @@@@@@@@@@@@  @@@@@+OO",
"OO+@@@@@oo @@@@@@@@@@ oo@@@@@+OO",
"OO+@@@@@oo @        @ oo@@@@@+OO",
"OO+@@@@@oo  oooooooo  oo@@@@@+OO",
"OO+@@@@@++ o........o ++@@@@@+OO",
"OO+@@@@@XX .......... XX@@@@@+OO",
"OO+@@@@@XX ..X....X.. XX@@@@@+OO",
"OO+@@@@@.. ..X....X.. ..@@@@@+OO",
"OO+@@@@@XX ..X....X.. XX@@@@@+OO",
"OO+@@@@@XX ..X....X.. XX@@@@@+OO",
"OO+@@@@@XX ..X....@@. XX@@@@@+OO",
"OO+@@@@@.. ..X....X.. ..@@@@@+OO",
"OO+@@@@@XX ..X....X.. XX@@@@@+OO",
"OO+@@@@@XX ..X....X.. XX@@@@@+OO",
"OO+@@@@@XX .......... XX@@@@@+OO",
"OO+@@@@@                @@@@@+OO",
"OOO+@@@@@@@@@@@@@@@@@@@@@@@@+OOO",
"OOO+@@@@@@@@@@@@@@@@@@@@@@@@+OOO",
"OOO+@@@@@@@@@@@@@@@@@@@@@@@@+OOO",
"OOOO+@@@@@@@@@@@@@@@@@@@@@@+OOOO",
"OOOOO+++@@@@@@@@@@@@@@@@+++OOOOO",
"OOOOOOOO++++++++++++++++OOOOOOOO",
"OOOOOOOOOOOOOOOOOOOOOOOOOOOOOOOO",
"OOOOOOOOOOOOOOOOOOOOOOOOOOOOOOOO"
};
